<?xml version="1.0" standalone="no"?>
<!DOCTYPE svg PUBLIC "-//W3C//DTD SVG 20010904//EN"
 "http://www.w3.org/TR/2001/REC-SVG-20010904/DTD/svg10.dtd">
<svg version="1.0" xmlns="http://www.w3.org/2000/svg"
 width="1920.000000pt" height="1920.000000pt" viewBox="0 0 1920.000000 1920.000000"
 preserveAspectRatio="xMidYMid meet">

<g transform="translate(0.000000,1920.000000) scale(0.100000,-0.100000)"
fill="#000000" stroke="none">
<path d="M9260 19193 c-1965 -72 -3842 -732 -5402 -1901 -590 -441 -1156 -978
-1624 -1537 -710 -848 -1282 -1841 -1659 -2880 -423 -1166 -622 -2457 -565
-3680 65 -1398 401 -2693 1015 -3910 586 -1160 1390 -2179 2385 -3021 1092
-924 2408 -1604 3790 -1958 1895 -486 3867 -389 5700 279 1036 377 2043 963
2890 1679 412 349 831 770 1176 1182 1185 1418 1929 3128 2158 4964 65 522 95
1265 66 1646 -5 71 -17 221 -25 334 -91 1185 -420 2370 -960 3465 -603 1219
-1466 2304 -2530 3177 -1395 1143 -3104 1876 -4885 2093 -509 62 -1050 86
-1530 68z m875 -778 c892 -55 1701 -225 2530 -530 2465 -908 4428 -2914 5285
-5400 259 -753 429 -1613 466 -2362 l7 -143 -2751 0 -2751 0 -5 33 c-3 17 -13
77 -22 132 -107 675 -435 1315 -929 1810 -535 537 -1184 855 -1960 961 -183
25 -627 25 -810 0 -387 -53 -713 -148 -1040 -305 -345 -166 -645 -380 -925
-661 -482 -483 -813 -1125 -920 -1780 -11 -69 -23 -140 -26 -157 l-5 -33
-2751 0 -2751 0 7 138 c3 75 13 211 22 302 176 1890 948 3658 2219 5075 1502
1676 3604 2725 5820 2905 403 33 909 39 1290 15z m-130 -6274 c579 -102 1045
-346 1440 -752 377 -389 619 -877 702 -1419 25 -163 25 -578 0 -740 -41 -266
-117 -510 -231 -745 -134 -278 -275 -475 -501 -701 -490 -492 -1122 -754
-1815 -754 -693 0 -1324 262 -1815 754 -226 226 -367 423 -501 701 -115 238
-188 474 -231 745 -25 163 -25 577 0 740 41 265 116 506 227 738 87 181 151
286 265 437 406 541 1009 900 1675 999 159 24 167 24 425 21 190 -2 265 -7
360 -24z m-3721 -2953 c60 -370 104 -543 201 -793 314 -810 936 -1470 1730
-1833 506 -232 1090 -336 1641 -292 620 50 1216 271 1717 636 700 511 1186
1303 1321 2149 9 55 19 115 22 133 l5 32 2751 0 2751 0 -7 -137 c-18 -370 -76
-820 -156 -1223 -301 -1505 -995 -2910 -2015 -4076 -162 -186 -515 -545 -700
-714 -1637 -1489 -3734 -2300 -5945 -2300 -1503 0 -2940 368 -4254 1089 -1001
550 -1909 1313 -2631 2211 -1016 1265 -1654 2753 -1869 4360 -30 223 -53 466
-62 653 l-7 137 2751 0 2751 0 5 -32z"/>
<path d="M9475 11304 c-114 -11 -210 -28 -300 -51 -488 -126 -893 -457 -1110
-908 -68 -141 -97 -223 -129 -367 -130 -579 41 -1168 458 -1583 657 -654 1692
-671 2374 -40 410 380 611 973 516 1524 -125 729 -696 1296 -1414 1406 -98 16
-324 26 -395 19z m363 -479 c432 -83 794 -397 941 -817 48 -139 65 -244 65
-408 0 -164 -17 -270 -66 -408 -65 -184 -159 -333 -298 -472 -177 -178 -379
-287 -630 -342 -134 -30 -366 -30 -500 0 -251 55 -452 164 -631 342 -178 178
-297 399 -346 647 -23 119 -23 347 0 466 75 378 319 703 657 876 141 72 276
113 450 135 65 8 274 -3 358 -19z"/>
</g>
</svg>
